<?xml version="1.0" encoding="UTF-8" standalone="no"?><!DOCTYPE svg PUBLIC "-//W3C//DTD SVG 1.1//EN" "http://www.w3.org/Graphics/SVG/1.1/DTD/svg11.dtd"><svg width="100%" height="100%" viewBox="0 0 240 240" version="1.1" xmlns="http://www.w3.org/2000/svg" xmlns:xlink="http://www.w3.org/1999/xlink" xml:space="preserve" xmlns:serif="http://www.serif.com/" style="fill-rule:evenodd;clip-rule:evenodd;stroke-linecap:round;stroke-linejoin:round;stroke-miterlimit:1.5;"><g><g><ellipse cx="94.77" cy="192.999" rx="85.565" ry="36.027" style="fill:#00faff;stroke:#000;stroke-width:1px;"/><rect x="9.284" y="170.28" width="171.134" height="24.795" style="fill:#00faff;"/><ellipse cx="94.77" cy="171.838" rx="85.565" ry="36.027" style="fill:#00faff;stroke:#000;stroke-width:1px;"/><path d="M180.282,170.806l0.127,23.613" style="fill:none;stroke:#000;stroke-width:0.83px;"/><path d="M9.342,194.649c0,0.236 -0.027,0.394 -0.027,0.629l0,0.36c0,0 0.019,-0.084 0.027,-0.126c0.011,-0.054 0.038,-0.561 0.15,-0.413c0.031,0.041 -0.059,0.113 -0.068,0.125c-0.01,0.013 0.009,0.067 -0,0.054c-0.059,-0.078 -0.113,-0.13 -0.177,-0.197c-0.129,-0.137 -0.081,-0.443 -0.081,-0.648" style="fill:none;stroke:#000;stroke-width:0.42px;"/><path d="M9.18,190.298l0.882,6.707" style="fill:none;stroke:#000;stroke-width:0.42px;"/><path d="M180.409,194.419l-0.992,4.186" style="fill:none;stroke:#000;stroke-width:0.83px;"/><path d="M8.909,170.638l0.126,23.613" style="fill:none;stroke:#000;stroke-width:0.83px;"/><path d="M9.085,192.959c0.244,1.654 0.013,-0.45 0.013,-0.45l0.733,2.769" style="fill:none;stroke:#000;stroke-width:0.42px;"/><path d="M9.492,194.074c-0,0.394 -0.027,0.781 -0.027,1.168c-0,0.126 0.027,0.275 0.027,0.378c-0,0.053 0.027,0.18 0.027,0.18c0.035,-0.236 0.108,-0.559 0.013,-0.809c-0.036,-0.096 0.011,-0.243 -0.027,-0.342c-0.048,-0.128 -0.11,-0.202 -0.163,-0.342c-0.011,-0.031 -0.013,-0.108 -0.013,-0.143c-0,-0.024 -0.013,-0.089 -0,-0.072c0.22,0.291 0.113,0.714 0.244,1.061c0.046,0.121 0.031,0.244 0.081,0.377c0.021,0.054 0,0.24 0,0.18c0,-0.175 0.129,-0.47 0.055,-0.665c-0.051,-0.134 -0.187,-0.154 -0.231,-0.27c-0.072,-0.191 -0.17,-0.343 -0.244,-0.54c-0.03,-0.078 -0.007,-0.773 0.054,-0.773c0.034,0 0.064,0.157 0.082,0.18c0.143,0.19 -0.024,0.621 0.067,0.863c0.019,0.049 0.055,0.104 0.055,0.162c-0,0.107 0.074,0.215 0.108,0.306c0.017,0.044 0.011,0.188 0.027,0.144c0.035,-0.093 -0.072,-0.378 -0.095,-0.468c-0.088,-0.353 -0.19,-0.625 -0.19,-0.989" style="fill:none;stroke:#000;stroke-width:0.42px;"/></g><g><ellipse cx="94.77" cy="161.257" rx="85.565" ry="36.027" style="fill:#00faff;stroke:#000;stroke-width:1px;"/><rect x="9.284" y="138.539" width="171.134" height="24.795" style="fill:#00faff;"/><ellipse cx="94.77" cy="140.096" rx="85.565" ry="36.027" style="fill:#00faff;stroke:#000;stroke-width:1px;"/><path d="M180.282,139.064l0.127,23.613" style="fill:none;stroke:#000;stroke-width:0.83px;"/><path d="M9.342,162.907c0,0.236 -0.027,0.394 -0.027,0.629l0,0.36c0,0 0.019,-0.083 0.027,-0.126c0.011,-0.054 0.038,-0.561 0.15,-0.413c0.031,0.041 -0.059,0.113 -0.068,0.125c-0.01,0.013 0.009,0.067 -0,0.054c-0.059,-0.078 -0.113,-0.13 -0.177,-0.197c-0.129,-0.137 -0.081,-0.443 -0.081,-0.648" style="fill:none;stroke:#000;stroke-width:0.42px;"/><path d="M9.18,158.556l0.882,6.707" style="fill:none;stroke:#000;stroke-width:0.42px;"/><path d="M180.409,162.677l-0.992,4.186" style="fill:none;stroke:#000;stroke-width:0.83px;"/><path d="M8.909,138.896l0.126,23.613" style="fill:none;stroke:#000;stroke-width:0.83px;"/><path d="M9.085,161.217c0.244,1.654 0.013,-0.45 0.013,-0.45l0.733,2.769" style="fill:none;stroke:#000;stroke-width:0.42px;"/><path d="M9.492,162.332c-0,0.394 -0.027,0.781 -0.027,1.168c-0,0.126 0.027,0.275 0.027,0.378c-0,0.053 0.027,0.18 0.027,0.18c0.035,-0.236 0.108,-0.559 0.013,-0.809c-0.036,-0.096 0.011,-0.243 -0.027,-0.342c-0.048,-0.128 -0.11,-0.202 -0.163,-0.342c-0.011,-0.031 -0.013,-0.108 -0.013,-0.143c-0,-0.024 -0.013,-0.089 -0,-0.072c0.22,0.291 0.113,0.714 0.244,1.061c0.046,0.121 0.031,0.244 0.081,0.377c0.021,0.054 0,0.24 0,0.18c0,-0.175 0.129,-0.47 0.055,-0.665c-0.051,-0.134 -0.187,-0.154 -0.231,-0.27c-0.072,-0.191 -0.17,-0.343 -0.244,-0.54c-0.03,-0.078 -0.007,-0.773 0.054,-0.773c0.034,0 0.064,0.157 0.082,0.18c0.143,0.19 -0.024,0.621 0.067,0.863c0.019,0.049 0.055,0.104 0.055,0.162c-0,0.107 0.074,0.215 0.108,0.306c0.017,0.044 0.011,0.188 0.027,0.144c0.035,-0.093 -0.072,-0.378 -0.095,-0.468c-0.088,-0.353 -0.19,-0.624 -0.19,-0.989" style="fill:none;stroke:#000;stroke-width:0.42px;"/></g><g><ellipse cx="94.77" cy="129.515" rx="85.565" ry="36.027" style="fill:#00faff;stroke:#000;stroke-width:1px;"/><rect x="9.284" y="106.797" width="171.134" height="24.795" style="fill:#00faff;"/><ellipse cx="94.77" cy="108.354" rx="85.565" ry="36.027" style="fill:#00faff;stroke:#000;stroke-width:1px;"/><path d="M180.282,107.322l0.127,23.613" style="fill:none;stroke:#000;stroke-width:0.83px;"/><path d="M9.342,131.165c0,0.236 -0.027,0.394 -0.027,0.629l0,0.36c0,0 0.019,-0.083 0.027,-0.126c0.011,-0.054 0.038,-0.561 0.15,-0.413c0.031,0.041 -0.059,0.113 -0.068,0.126c-0.01,0.012 0.009,0.066 -0,0.053c-0.059,-0.078 -0.113,-0.13 -0.177,-0.197c-0.129,-0.137 -0.081,-0.443 -0.081,-0.648" style="fill:none;stroke:#000;stroke-width:0.42px;"/><path d="M9.18,126.814l0.882,6.707" style="fill:none;stroke:#000;stroke-width:0.42px;"/><path d="M180.409,130.935l-0.992,4.186" style="fill:none;stroke:#000;stroke-width:0.83px;"/><path d="M8.909,107.154l0.126,23.613" style="fill:none;stroke:#000;stroke-width:0.83px;"/><path d="M9.085,129.475c0.244,1.654 0.013,-0.45 0.013,-0.45l0.733,2.769" style="fill:none;stroke:#000;stroke-width:0.42px;"/><path d="M9.492,130.59c-0,0.394 -0.027,0.781 -0.027,1.168c-0,0.126 0.027,0.275 0.027,0.378c-0,0.053 0.027,0.18 0.027,0.18c0.035,-0.236 0.108,-0.559 0.013,-0.809c-0.036,-0.096 0.011,-0.243 -0.027,-0.342c-0.048,-0.128 -0.11,-0.202 -0.163,-0.342c-0.011,-0.031 -0.013,-0.108 -0.013,-0.143c-0,-0.024 -0.013,-0.089 -0,-0.072c0.22,0.291 0.113,0.714 0.244,1.061c0.046,0.121 0.031,0.244 0.081,0.377c0.021,0.054 0,0.24 0,0.18c0,-0.175 0.129,-0.47 0.055,-0.665c-0.051,-0.134 -0.187,-0.154 -0.231,-0.27c-0.072,-0.19 -0.17,-0.343 -0.244,-0.539c-0.03,-0.079 -0.007,-0.774 0.054,-0.774c0.034,0 0.064,0.158 0.082,0.18c0.143,0.19 -0.024,0.621 0.067,0.863c0.019,0.049 0.055,0.104 0.055,0.162c-0,0.107 0.074,0.215 0.108,0.306c0.017,0.044 0.011,0.188 0.027,0.144c0.035,-0.093 -0.072,-0.378 -0.095,-0.468c-0.088,-0.353 -0.19,-0.624 -0.19,-0.989" style="fill:none;stroke:#000;stroke-width:0.42px;"/></g><g><ellipse cx="147.879" cy="97.773" rx="85.565" ry="36.027" style="fill:#f170ac;stroke:#000;stroke-width:1px;"/><rect x="62.394" y="75.055" width="171.134" height="24.795" style="fill:#f170ac;"/><ellipse cx="147.879" cy="76.612" rx="85.565" ry="36.027" style="fill:#f170ac;stroke:#000;stroke-width:1px;"/><path d="M233.391,75.58l0.127,23.613" style="fill:none;stroke:#000;stroke-width:0.83px;"/><path d="M233.391,75.58l0.127,23.613" style="fill:none;"/><path d="M62.452,99.423c-0,0.236 -0.027,0.394 -0.027,0.629l-0,0.36c-0,0 0.019,-0.083 0.027,-0.126c0.01,-0.054 0.037,-0.561 0.149,-0.413c0.031,0.041 -0.058,0.113 -0.068,0.126c-0.009,0.012 0.01,0.066 0,0.053c-0.059,-0.078 -0.113,-0.13 -0.176,-0.197c-0.129,-0.137 -0.082,-0.443 -0.082,-0.648" style="fill:none;stroke:#000;stroke-width:0.42px;"/><path d="M62.452,99.423c-0,0.236 -0.027,0.394 -0.027,0.629l-0,0.36c-0,0 0.019,-0.083 0.027,-0.126c0.01,-0.054 0.037,-0.561 0.149,-0.413c0.031,0.041 -0.058,0.113 -0.068,0.126c-0.009,0.012 0.01,0.066 0,0.053c-0.059,-0.078 -0.113,-0.13 -0.176,-0.197c-0.129,-0.137 -0.082,-0.443 -0.082,-0.648" style="fill:#f170ac;"/><path d="M62.289,95.072l0.882,6.707" style="fill:none;stroke:#000;stroke-width:0.42px;"/><path d="M62.289,95.072l0.882,6.707" style="fill:none;"/><path d="M233.518,99.193l-0.992,4.186" style="fill:none;stroke:#000;stroke-width:0.83px;"/><path d="M233.518,99.193l-0.992,4.186" style="fill:none;"/><path d="M62.018,75.412l0.126,23.613" style="fill:none;stroke:#000;stroke-width:0.83px;"/><path d="M62.018,75.412l0.126,23.613" style="fill:none;"/><path d="M62.194,97.733c0.244,1.654 0.013,-0.45 0.013,-0.45l0.733,2.769" style="fill:none;stroke:#000;stroke-width:0.42px;"/><path d="M62.194,97.733c0.244,1.654 0.013,-0.45 0.013,-0.45l0.733,2.769" style="fill:#f170ac;"/><path d="M62.601,98.848c-0,0.394 -0.027,0.781 -0.027,1.169c-0,0.125 0.027,0.274 0.027,0.377c-0,0.053 0.027,0.18 0.027,0.18c0.036,-0.236 0.108,-0.559 0.014,-0.809c-0.036,-0.096 0.01,-0.243 -0.027,-0.342c-0.049,-0.128 -0.111,-0.202 -0.163,-0.342c-0.012,-0.031 -0.014,-0.108 -0.014,-0.143c0,-0.024 -0.013,-0.089 0,-0.072c0.22,0.291 0.114,0.714 0.244,1.061c0.046,0.121 0.032,0.244 0.082,0.377c0.02,0.054 -0,0.24 -0,0.18c-0,-0.175 0.128,-0.469 0.054,-0.665c-0.05,-0.134 -0.187,-0.154 -0.231,-0.27c-0.071,-0.19 -0.17,-0.343 -0.244,-0.539c-0.03,-0.079 -0.006,-0.774 0.054,-0.774c0.034,0 0.065,0.158 0.082,0.18c0.143,0.19 -0.024,0.621 0.068,0.863c0.018,0.049 0.054,0.104 0.054,0.162c-0,0.107 0.074,0.215 0.109,0.306c0.016,0.044 0.01,0.188 0.027,0.144c0.035,-0.093 -0.073,-0.378 -0.095,-0.468c-0.089,-0.353 -0.19,-0.624 -0.19,-0.989" style="fill:none;stroke:#000;stroke-width:0.42px;"/><path d="M62.601,98.848c-0,0.394 -0.027,0.781 -0.027,1.169c-0,0.125 0.027,0.274 0.027,0.377c-0,0.053 0.027,0.18 0.027,0.18c0.036,-0.236 0.108,-0.559 0.014,-0.809c-0.036,-0.096 0.01,-0.243 -0.027,-0.342c-0.049,-0.128 -0.111,-0.202 -0.163,-0.342c-0.012,-0.031 -0.014,-0.108 -0.014,-0.143c0,-0.024 -0.013,-0.089 0,-0.072c0.22,0.291 0.114,0.714 0.244,1.061c0.046,0.121 0.032,0.244 0.082,0.377c0.02,0.054 -0,0.24 -0,0.18c-0,-0.175 0.128,-0.469 0.054,-0.665c-0.05,-0.134 -0.187,-0.154 -0.231,-0.27c-0.071,-0.19 -0.17,-0.343 -0.244,-0.539c-0.03,-0.079 -0.006,-0.774 0.054,-0.774c0.034,0 0.065,0.158 0.082,0.18c0.143,0.19 -0.024,0.621 0.068,0.863c0.018,0.049 0.054,0.104 0.054,0.162c-0,0.107 0.074,0.215 0.109,0.306c0.016,0.044 0.01,0.188 0.027,0.144c0.035,-0.093 -0.073,-0.378 -0.095,-0.468c-0.089,-0.353 -0.19,-0.624 -0.19,-0.989" style="fill:#f170ac;"/></g><g><ellipse cx="94.77" cy="66.031" rx="85.565" ry="36.027" style="fill:#00faff;stroke:#000;stroke-width:1px;"/><rect x="9.284" y="43.313" width="171.134" height="24.795" style="fill:#00faff;"/><ellipse cx="94.77" cy="44.87" rx="85.565" ry="36.027" style="fill:#00faff;stroke:#000;stroke-width:1px;"/><path d="M180.282,43.839l0.127,23.612" style="fill:none;stroke:#000;stroke-width:0.83px;"/><path d="M9.342,67.681c0,0.236 -0.027,0.394 -0.027,0.63l0,0.359c0,0 0.019,-0.083 0.027,-0.126c0.011,-0.054 0.038,-0.561 0.15,-0.413c0.031,0.041 -0.059,0.113 -0.068,0.126c-0.01,0.012 0.009,0.066 -0,0.054c-0.059,-0.079 -0.113,-0.131 -0.177,-0.198c-0.129,-0.137 -0.081,-0.443 -0.081,-0.648" style="fill:none;stroke:#000;stroke-width:0.42px;"/><path d="M9.18,63.33l0.882,6.707" style="fill:none;stroke:#000;stroke-width:0.42px;"/><path d="M180.409,67.451l-0.992,4.186" style="fill:none;stroke:#000;stroke-width:0.83px;"/><path d="M8.909,43.67l0.126,23.613" style="fill:none;stroke:#000;stroke-width:0.83px;"/><path d="M9.085,65.991c0.244,1.654 0.013,-0.45 0.013,-0.45l0.733,2.77" style="fill:none;stroke:#000;stroke-width:0.42px;"/><path d="M9.492,67.106c-0,0.395 -0.027,0.781 -0.027,1.169c-0,0.125 0.027,0.274 0.027,0.377c-0,0.053 0.027,0.18 0.027,0.18c0.035,-0.236 0.108,-0.559 0.013,-0.809c-0.036,-0.096 0.011,-0.243 -0.027,-0.342c-0.048,-0.128 -0.11,-0.202 -0.163,-0.341c-0.011,-0.032 -0.013,-0.109 -0.013,-0.144c-0,-0.024 -0.013,-0.089 -0,-0.072c0.22,0.291 0.113,0.714 0.244,1.061c0.046,0.121 0.031,0.244 0.081,0.377c0.021,0.054 0,0.24 0,0.18c0,-0.175 0.129,-0.469 0.055,-0.665c-0.051,-0.134 -0.187,-0.154 -0.231,-0.27c-0.072,-0.19 -0.17,-0.343 -0.244,-0.539c-0.03,-0.079 -0.007,-0.774 0.054,-0.774c0.034,0 0.064,0.158 0.082,0.18c0.143,0.19 -0.024,0.621 0.067,0.863c0.019,0.05 0.055,0.104 0.055,0.162c-0,0.107 0.074,0.215 0.108,0.306c0.017,0.044 0.011,0.188 0.027,0.144c0.035,-0.093 -0.072,-0.378 -0.095,-0.468c-0.088,-0.353 -0.19,-0.624 -0.19,-0.989" style="fill:none;stroke:#000;stroke-width:0.42px;"/></g></g></svg>